<?xml version="1.0" encoding="utf-8"?>
<!-- Generator: Adobe Illustrator 16.0.0, SVG Export Plug-In . SVG Version: 6.00 Build 0)  -->
<!DOCTYPE svg PUBLIC "-//W3C//DTD SVG 1.1//EN" "http://www.w3.org/Graphics/SVG/1.1/DTD/svg11.dtd">
<svg version="1.1" id="Layer_1" xmlns="http://www.w3.org/2000/svg" xmlns:xlink="http://www.w3.org/1999/xlink" x="0px" y="0px"
	 width="884.613px" height="754.907px" viewBox="257.698 368.204 884.613 754.907"
	 enable-background="new 257.698 368.204 884.613 754.907" xml:space="preserve">
<polygon points="258.429,893.843 301.607,893.843 301.607,978.224 376.255,978.224 376.255,893.843 419.282,893.843 
	419.282,1117.485 376.255,1117.485 376.255,1019.422 301.607,1019.422 301.607,1117.485 258.429,1117.485 "/>
<path d="M534.08,893.843h43.168l86.017,223.644h-44.24l-17.498-46.067H510.27l-18.194,46.067h-44.239L534.08,893.843z
	 M555.93,953.138l-30.005,76.778h59.835L555.93,953.138z"/>
<polygon points="691.882,893.843 732.716,893.843 828.409,1041.014 828.409,893.843 870.979,893.843 870.979,1117.485 
	830.029,1117.485 734.45,970.771 734.45,1117.485 691.882,1117.485 "/>
<path d="M1126.35,930.329l-29.979,29.647c-18.972-20.068-41.088-30.102-66.349-30.102c-22.014,0-40.449,7.296-55.313,21.893
	c-14.856,14.595-22.291,32.333-22.291,53.212c0,21.589,7.713,39.884,23.139,54.888c15.416,14.994,34.44,22.498,57.07,22.498
	c14.713,0,27.116-3.093,37.216-9.273c10.093-6.186,18.232-15.862,24.428-29.037H1029.5v-39.987h112.508l0.303,9.426
	c0,19.564-5.063,38.111-15.204,55.648c-10.134,17.532-23.261,30.91-39.377,40.134c-16.115,9.225-35.019,13.836-56.709,13.836
	c-23.209,0-43.913-5.039-62.106-15.125c-18.189-10.086-32.582-24.452-43.176-43.104c-10.594-18.647-15.889-38.771-15.889-60.356
	c0-29.592,9.779-55.342,29.341-77.233c23.214-26.045,53.417-39.072,90.616-39.072c19.46,0,37.654,3.6,54.578,10.793
	C1098.677,905.094,1112.663,915.533,1126.35,930.329"/>
<path d="M859.866,858.572L577.435,369.383h564.866L859.866,858.572z M581.209,371.561l278.657,482.656l278.66-482.656H581.209
	L581.209,371.561z M859.866,761.682L661.345,417.83h397.046L859.866,761.682z M665.117,420.008l194.749,337.316l194.75-337.316
	H665.117L665.117,420.008z"/>
<polygon points="859.865,856.396 579.741,370.95 663.231,418.918 859.865,759.503 1056.505,418.918 1140.592,370.288 "/>
<path d="M822.564,857.393H257.698l282.435-489.188L822.564,857.393z M261.472,855.215H818.79L540.132,372.559L261.472,855.215z
	 M738.654,808.945H341.609l198.522-343.853L738.654,808.945z M345.384,806.767h389.497L540.132,469.451L345.384,806.767z"/>
<polygon points="821.341,856.301 259.583,856.301 540.133,370.289 540.133,467.272 343.496,807.854 736.769,807.857 "/>
</svg>
