<?xml version="1.0" encoding="utf-8"?>
<!-- Generator: Adobe Illustrator 16.0.0, SVG Export Plug-In . SVG Version: 6.00 Build 0)  -->
<!DOCTYPE svg PUBLIC "-//W3C//DTD SVG 1.1//EN" "http://www.w3.org/Graphics/SVG/1.1/DTD/svg11.dtd">
<svg version="1.1" id="Layer_1" xmlns="http://www.w3.org/2000/svg" xmlns:xlink="http://www.w3.org/1999/xlink" x="0px" y="0px"
	 width="889.55px" height="871.92px" viewBox="255.23 309.698 889.55 871.92" enable-background="new 255.23 309.698 889.55 871.92"
	 xml:space="preserve">
<g>
	<polygon fill="#FFFFFF" points="258.429,835.335 301.607,835.335 301.607,919.716 376.256,919.716 376.256,835.335 
		419.282,835.335 419.282,1058.978 376.256,1058.978 376.256,960.916 301.607,960.916 301.607,1058.978 258.429,1058.978 	"/>
	<path fill="#FFFFFF" d="M534.08,835.335h43.169l86.017,223.645h-44.24l-17.498-46.066H510.27l-18.194,46.066h-44.238
		L534.08,835.335z M555.93,894.63l-30.005,76.779h59.835L555.93,894.63z"/>
	<polygon fill="#FFFFFF" points="691.883,835.335 732.717,835.335 828.409,982.507 828.409,835.335 870.979,835.335 
		870.979,1058.978 830.029,1058.978 734.45,912.263 734.45,1058.978 691.883,1058.978 	"/>
	<path fill="#FFFFFF" d="M1126.35,871.822l-29.979,29.646c-18.972-20.066-41.088-30.102-66.349-30.102
		c-22.014,0-40.449,7.297-55.313,21.893c-14.856,14.596-22.291,32.334-22.291,53.213c0,21.59,7.713,39.885,23.139,54.889
		c15.416,14.994,34.439,22.498,57.07,22.498c14.713,0,27.115-3.094,37.216-9.273c10.093-6.186,18.231-15.863,24.428-29.037h-64.771
		v-39.986h112.508l0.303,9.426c0,19.563-5.063,38.111-15.204,55.646c-10.134,17.533-23.261,30.91-39.377,40.135
		c-16.115,9.225-35.019,13.836-56.709,13.836c-23.209,0-43.913-5.039-62.105-15.125c-18.189-10.086-32.582-24.451-43.177-43.104
		c-10.594-18.646-15.889-38.771-15.889-60.355c0-29.592,9.779-55.342,29.341-77.234c23.214-26.045,53.417-39.072,90.616-39.072
		c19.46,0,37.654,3.602,54.578,10.795C1098.677,846.587,1112.663,857.027,1126.35,871.822"/>
	<path fill="#FFFFFF" d="M859.866,800.066l-282.431-489.19h564.866L859.866,800.066z M581.21,313.054L859.866,795.71l278.66-482.656
		H581.21L581.21,313.054z M859.866,703.175L661.345,359.324h397.046L859.866,703.175z M665.117,361.501l194.749,337.316
		l194.75-337.316H665.117L665.117,361.501z"/>
	<polygon fill="#FFFFFF" points="859.865,797.888 579.741,312.443 663.231,360.412 859.865,700.996 1056.506,360.412 
		1140.593,311.781 	"/>
	<path fill="#FFFFFF" d="M822.564,798.886H257.698l282.436-489.188L822.564,798.886z M261.472,796.708H818.79L540.133,314.052
		L261.472,796.708z M738.654,750.439H341.609l198.522-343.854L738.654,750.439z M345.385,748.259h389.497L540.133,410.945
		L345.385,748.259z"/>
	<polygon fill="#FFFFFF" points="821.342,797.794 259.583,797.794 540.134,311.782 540.134,408.765 343.496,749.347 
		736.769,749.351 	"/>
</g>
</svg>
