<?xml version="1.0" encoding="utf-8"?>
<!-- Generator: Adobe Illustrator 16.0.0, SVG Export Plug-In . SVG Version: 6.00 Build 0)  -->
<!DOCTYPE svg PUBLIC "-//W3C//DTD SVG 1.1//EN" "http://www.w3.org/Graphics/SVG/1.1/DTD/svg11.dtd">
<svg version="1.1" id="Layer_1" xmlns="http://www.w3.org/2000/svg" xmlns:xlink="http://www.w3.org/1999/xlink" x="0px" y="0px"
	 width="889.55px" height="871.92px" viewBox="253.419 272.454 889.55 871.92"
	 enable-background="new 253.419 272.454 889.55 871.92" xml:space="preserve">
<g>
	<path fill="#FFFFFF" d="M859.866,762.821L577.435,273.631h564.866L859.866,762.821z M581.21,275.809l278.656,482.656
		l278.66-482.656H581.21L581.21,275.809z M859.866,665.93L661.345,322.077h397.046L859.866,665.93z M665.117,324.256
		l194.749,337.316l194.75-337.316H665.117L665.117,324.256z"/>
	<polygon fill="#FFFFFF" points="859.865,760.643 579.741,275.198 663.231,323.167 859.865,663.752 1056.506,323.167 
		1140.593,274.536 	"/>
	<path fill="#FFFFFF" d="M822.564,761.641H257.698l282.436-489.188L822.564,761.641z M261.472,759.463H818.79L540.133,276.807
		L261.472,759.463z M738.654,713.194H341.609L540.132,369.34L738.654,713.194z M345.385,711.016h389.497L540.133,373.698
		L345.385,711.016z"/>
	<polygon fill="#FFFFFF" points="821.342,760.549 259.583,760.549 540.134,274.538 540.134,371.518 343.496,712.102 
		736.769,712.106 	"/>
	<g>
		<path fill="#FFFFFF" d="M254.087,799.206h30.229c16.557,0,28.346,1.477,35.368,4.434c7.022,2.953,12.671,7.863,16.946,14.725
			c4.275,6.859,6.412,14.979,6.412,24.354c0,9.852-2.359,18.086-7.08,24.711c-4.723,6.621-11.837,11.633-21.344,15.029
			l35.506,66.639h-31.189l-33.704-63.479h-2.611v63.479h-28.53L254.087,799.206L254.087,799.206z M282.618,857.795h8.941
			c9.071,0,15.319-1.189,18.738-3.578c3.42-2.385,5.13-6.336,5.13-11.855c0-3.271-0.848-6.115-2.539-8.537
			c-1.691-2.42-3.962-4.156-6.807-5.213c-2.844-1.061-8.059-1.586-15.643-1.586h-7.823L282.618,857.795L282.618,857.795z"/>
		<path fill="#FFFFFF" d="M369.758,799.206h81.823v27.92h-53.495v27.104h53.495v27.408h-53.495v39.438h53.495v28.02h-81.823V799.206
			z"/>
		<path fill="#FFFFFF" d="M615.126,825.547l-19.955,19.023c-13.575-14.35-28.847-21.521-45.813-21.521
			c-14.32,0-26.388,4.896-36.191,14.688c-9.809,9.791-14.712,21.859-14.712,36.209c0,9.996,2.171,18.871,6.515,26.623
			c4.343,7.752,10.485,13.838,18.431,18.256c7.938,4.42,16.763,6.631,26.47,6.631c8.277,0,15.846-1.547,22.702-4.643
			c6.854-3.094,14.388-8.721,22.601-16.881l19.342,20.186c-11.068,10.807-21.533,18.299-31.384,22.479
			c-9.85,4.182-21.091,6.271-33.727,6.271c-23.304,0-42.372-7.391-57.215-22.162c-14.845-14.775-22.267-33.711-22.267-56.811
			c0-14.941,3.379-28.225,10.143-39.842c6.757-11.615,16.438-20.955,29.036-28.02c12.604-7.064,26.173-10.598,40.708-10.598
			c12.363,0,24.269,2.611,35.717,7.832C596.969,808.491,606.835,815.918,615.126,825.547z"/>
		<path fill="#FFFFFF" d="M701.883,795.436c21.208,0,39.442,7.678,54.702,23.025c15.262,15.355,22.893,34.068,22.893,56.146
			c0,21.873-7.527,40.385-22.586,55.529c-15.057,15.15-33.323,22.727-54.804,22.727c-22.501,0-41.194-7.779-56.081-23.336
			c-14.886-15.557-22.329-34.033-22.329-55.432c0-14.332,3.469-27.512,10.4-39.537c6.934-12.021,16.467-21.551,28.601-28.582
			C674.809,798.952,687.879,795.436,701.883,795.436z M701.578,823.356c-13.873,0-25.536,4.822-34.987,14.469
			c-9.452,9.645-14.177,21.906-14.177,36.785c0,16.572,5.949,29.686,17.851,39.33c9.247,7.543,19.854,11.313,31.824,11.313
			c13.53,0,25.057-4.893,34.577-14.674c9.521-9.783,14.281-21.84,14.281-36.174c0-14.268-4.795-26.342-14.384-36.227
			C726.973,828.297,715.313,823.356,701.578,823.356z"/>
		<path fill="#FFFFFF" d="M804.162,799.206h30.229c16.557,0,28.346,1.477,35.367,4.434c7.023,2.953,12.673,7.863,16.947,14.725
			c4.275,6.859,6.413,14.979,6.413,24.354c0,9.852-2.361,18.086-7.082,24.711c-4.72,6.621-11.836,11.633-21.344,15.029
			l35.507,66.639H869.01l-33.705-63.479h-2.609v63.479h-28.532L804.162,799.206L804.162,799.206z M832.693,857.795h8.938
			c9.074,0,15.32-1.189,18.741-3.578c3.42-2.385,5.131-6.336,5.131-11.855c0-3.271-0.847-6.115-2.54-8.537
			c-1.692-2.42-3.963-4.156-6.808-5.213c-2.842-1.061-8.057-1.586-15.644-1.586h-7.82L832.693,857.795L832.693,857.795z"/>
		<path fill="#FFFFFF" d="M919.834,799.206h33.801c21.785,0,37.975,2.701,48.563,8.102s19.311,14.182,26.166,26.338
			c6.854,12.162,10.28,26.359,10.28,42.596c0,11.549-1.918,22.162-5.752,31.842c-3.834,9.682-9.129,17.715-15.884,24.1
			c-6.753,6.387-14.063,10.803-21.938,13.246c-7.873,2.445-21.516,3.668-40.928,3.668h-34.31L919.834,799.206L919.834,799.206z
			 M948.16,826.717v94.561h13.248c13.043,0,22.5-1.494,28.377-4.486c5.875-2.992,10.682-8.025,14.419-15.096
			c3.734-7.074,5.604-15.777,5.604-26.115c0-15.912-4.448-28.254-13.348-37.027c-8.017-7.889-20.89-11.834-38.619-11.834
			L948.16,826.717L948.16,826.717z"/>
		<path fill="#FFFFFF" d="M1139.652,819.586l-21.13,18.646c-7.423-10.324-14.976-15.486-22.663-15.486
			c-3.743,0-6.806,1.002-9.188,3.006s-3.573,4.264-3.573,6.775c0,2.514,0.853,4.891,2.554,7.133
			c2.313,2.99,9.286,9.408,20.924,19.258c10.887,9.104,17.487,14.842,19.801,17.221c5.784,5.846,9.885,11.432,12.301,16.766
			c2.416,5.332,3.624,11.154,3.624,17.473c0,12.297-4.251,22.453-12.751,30.467c-8.5,8.02-19.586,12.025-33.254,12.025
			c-10.678,0-19.977-2.615-27.896-7.85c-7.925-5.229-14.706-13.447-20.352-24.656l23.98-14.471
			c7.213,13.246,15.513,19.869,24.898,19.869c4.898,0,9.017-1.426,12.352-4.275c3.334-2.855,5-6.15,5-9.889
			c0-3.395-1.259-6.791-3.776-10.188c-2.519-3.398-8.063-8.594-16.637-15.592c-16.331-13.314-26.88-23.59-31.646-30.822
			c-4.764-7.236-7.144-14.453-7.144-21.654c0-10.393,3.96-19.309,11.885-26.748c7.923-7.438,17.698-11.154,29.331-11.154
			c7.48,0,14.604,1.73,21.371,5.193C1124.43,804.098,1131.76,810.415,1139.652,819.586z"/>
	</g>
</g>
</svg>
