<?xml version="1.0" encoding="utf-8"?>
<!-- Generator: Adobe Illustrator 16.0.0, SVG Export Plug-In . SVG Version: 6.00 Build 0)  -->
<!DOCTYPE svg PUBLIC "-//W3C//DTD SVG 1.1//EN" "http://www.w3.org/Graphics/SVG/1.1/DTD/svg11.dtd">
<svg version="1.1" id="Layer_1" xmlns="http://www.w3.org/2000/svg" xmlns:xlink="http://www.w3.org/1999/xlink" x="0px" y="0px"
	 width="889.554px" height="871.924px" viewBox="-2.413 0 889.554 871.924" enable-background="new -2.413 0 889.554 871.924"
	 xml:space="preserve">
<path fill="#FFFFFF" d="M604.705,490.367L322.275,1.178h564.866L604.705,490.367z M326.05,3.356l278.655,482.655L883.365,3.356
	H326.05L326.05,3.356z M604.705,393.477L406.185,49.625h397.046L604.705,393.477z M409.956,51.803l194.749,337.316l194.75-337.316
	H409.956L409.956,51.803z"/>
<polygon fill="#FFFFFF" points="604.704,488.19 324.58,2.745 408.071,50.713 604.704,391.297 801.346,50.713 885.433,2.083 "/>
<path fill="#FFFFFF" d="M567.404,489.188H2.537L284.974,0L567.404,489.188z M6.312,487.01h557.317L284.973,4.354L6.312,487.01z
	 M483.493,440.74H86.448L284.971,96.886L483.493,440.74z M90.225,438.561h389.497L284.973,101.246L90.225,438.561z"/>
<polygon fill="#FFFFFF" points="566.182,488.096 4.423,488.096 284.974,2.084 284.974,99.067 88.335,439.649 481.609,439.652 "/>
<g enable-background="new    ">
	<path fill="#FFFFFF" d="M10.384,526.854h28.844v56.367h49.867v-56.367h28.742v149.398H89.094v-65.508H39.227v65.508H10.384V526.854
		z"/>
	<path fill="#FFFFFF" d="M193.587,526.854h28.841l57.461,149.398h-29.555l-11.689-30.773h-60.961l-12.154,30.773h-29.555
		L193.587,526.854z M208.186,566.463l-20.045,51.289h39.97L208.186,566.463z"/>
	<path fill="#FFFFFF" d="M298.026,526.854h27.279l63.924,98.313v-98.313h28.438v149.398h-27.355l-63.848-98.008v98.008h-28.438
		V526.854z"/>
	<path fill="#FFFFFF" d="M585.762,551.229l-20.025,19.805c-12.674-13.406-27.445-20.109-44.32-20.109
		c-14.707,0-27.023,4.875-36.951,14.625s-14.891,21.6-14.891,35.547c0,14.422,5.15,26.645,15.453,36.664
		c10.303,10.021,23.012,15.031,38.127,15.031c9.828,0,18.115-2.064,24.859-6.195c6.744-4.129,12.182-10.596,16.318-19.398h-43.266
		v-26.711h75.156l0.203,6.297c0,13.068-3.387,25.459-10.156,37.172c-6.771,11.715-15.539,20.652-26.305,26.813
		s-23.395,9.242-37.883,9.242c-15.506,0-29.336-3.369-41.488-10.105c-12.154-6.736-21.77-16.334-28.844-28.793
		c-7.076-12.457-10.613-25.898-10.613-40.32c0-19.77,6.533-36.969,19.602-51.594c15.504-17.4,35.682-26.102,60.531-26.102
		c13,0,25.152,2.404,36.461,7.211C567.278,534.369,576.621,541.344,585.762,551.229z"/>
</g>
<g enable-background="new    ">
	<path fill="#FFFFFF" d="M88.891,739.08L67.83,757.666c-7.395-10.291-14.923-15.438-22.588-15.438c-3.731,0-6.783,1-9.157,2.996
		c-2.374,1.998-3.561,4.25-3.561,6.754c0,2.506,0.848,4.875,2.544,7.109c2.306,2.98,9.258,9.379,20.855,19.195
		c10.852,9.074,17.431,14.795,19.738,17.164c5.764,5.824,9.85,11.393,12.259,16.707c2.407,5.316,3.612,11.121,3.612,17.418
		c0,12.256-4.237,22.379-12.709,30.367c-8.473,7.99-19.521,11.984-33.145,11.984c-10.642,0-19.911-2.607-27.807-7.82
		S3.212,850.697-2.413,839.525l23.904-14.422c7.188,13.203,15.461,19.805,24.819,19.805c4.881,0,8.985-1.422,12.308-4.266
		c3.323-2.844,4.984-6.127,4.984-9.852c0-3.385-1.255-6.77-3.764-10.156c-2.51-3.385-8.038-8.564-16.583-15.539
		c-16.278-13.27-26.792-23.512-31.54-30.723s-7.121-14.404-7.121-21.582c0-10.359,3.948-19.246,11.846-26.66
		c7.896-7.414,17.642-11.121,29.234-11.121c7.457,0,14.558,1.727,21.303,5.18C73.722,723.643,81.027,729.939,88.891,739.08z"/>
	<path fill="#FFFFFF" d="M99.97,718.768h82.57v28.031h-27.219v121.367h-28.844V746.799H99.97V718.768z"/>
	<path fill="#FFFFFF" d="M197.073,718.768h28.539v96.609c0,8.322,0.727,14.208,2.184,17.658c1.455,3.449,3.859,6.208,7.211,8.271
		c3.352,2.063,7.396,3.095,12.137,3.095c5.01,0,9.326-1.148,12.949-3.45c3.621-2.299,6.127-5.226,7.516-8.777
		c1.387-3.551,2.082-10.334,2.082-20.347v-93.059h28.538v89.07c0,15.031-0.848,25.459-2.539,31.281
		c-1.693,5.824-4.925,11.443-9.698,16.859c-4.773,5.418-10.275,9.43-16.504,12.035c-6.23,2.605-13.475,3.91-21.734,3.91
		c-10.834,0-20.262-2.488-28.285-7.465s-13.762-11.205-17.215-18.688c-3.453-7.48-5.18-20.125-5.18-37.934V718.768z"/>
	<path fill="#FFFFFF" d="M327.387,718.768h33.689c21.715,0,37.85,2.691,48.402,8.074s19.246,14.135,26.08,26.254
		c6.832,12.121,10.25,26.271,10.25,42.453c0,11.512-1.912,22.09-5.734,31.738s-9.1,17.656-15.83,24.02
		c-6.732,6.365-14.021,10.766-21.869,13.203c-7.846,2.438-21.443,3.656-40.791,3.656h-34.197V718.768z M355.621,746.189v94.25
		h13.203c13,0,22.428-1.49,28.285-4.474c5.855-2.981,10.646-7.998,14.371-15.047c3.723-7.049,5.586-15.725,5.586-26.028
		c0-15.86-4.436-28.163-13.305-36.907c-7.99-7.861-20.82-11.794-38.492-11.794H355.621z"/>
	<path fill="#FFFFFF" d="M466.944,718.768h28.234v149.398h-28.234V718.768z"/>
	<path fill="#FFFFFF" d="M593.752,715.01c21.139,0,39.313,7.652,54.523,22.953c15.211,15.303,22.816,33.957,22.816,55.961
		c0,21.803-7.504,40.254-22.512,55.352c-15.008,15.1-33.215,22.648-54.625,22.648c-22.426,0-41.059-7.752-55.895-23.258
		c-14.838-15.504-22.258-33.922-22.258-55.25c0-14.285,3.455-27.422,10.365-39.406c6.912-11.984,16.414-21.48,28.508-28.488
		C566.768,718.514,579.793,715.01,593.752,715.01z M593.448,742.838c-13.828,0-25.451,4.809-34.871,14.422
		c-9.422,9.615-14.133,21.836-14.133,36.664c0,16.521,5.932,29.59,17.793,39.203c9.217,7.516,19.791,11.273,31.719,11.273
		c13.488,0,24.975-4.875,34.465-14.625s14.234-21.768,14.234-36.055c0-14.219-4.779-26.254-14.336-36.105
		S607.139,742.838,593.448,742.838z"/>
</g>
</svg>
