<?xml version="1.0" encoding="utf-8"?>
<!-- Generator: Adobe Illustrator 16.0.0, SVG Export Plug-In . SVG Version: 6.00 Build 0)  -->
<!DOCTYPE svg PUBLIC "-//W3C//DTD SVG 1.1//EN" "http://www.w3.org/Graphics/SVG/1.1/DTD/svg11.dtd">
<svg version="1.1" id="Layer_1" xmlns="http://www.w3.org/2000/svg" xmlns:xlink="http://www.w3.org/1999/xlink" x="0px" y="0px"
	 width="884.728px" height="723.592px" viewBox="257.573 368.204 884.728 723.592"
	 enable-background="new 257.573 368.204 884.728 723.592" xml:space="preserve">
<path d="M859.866,858.572L577.435,369.383h564.866L859.866,858.572z M581.209,371.561l278.657,482.656l278.66-482.656H581.209
	L581.209,371.561z M859.866,761.682L661.345,417.83h397.046L859.866,761.682z M665.117,420.008l194.749,337.316l194.75-337.316
	H665.117L665.117,420.008z"/>
<polygon points="859.865,856.396 579.741,370.95 663.231,418.918 859.865,759.502 1056.505,418.918 1140.592,370.288 "/>
<path d="M822.564,857.393H257.698l282.435-489.188L822.564,857.393z M261.472,855.215H818.79L540.132,372.559L261.472,855.215z
	 M738.654,808.945H341.609l198.522-343.853L738.654,808.945z M345.384,806.766h389.497L540.132,469.451L345.384,806.766z"/>
<polygon points="821.341,856.301 259.583,856.301 540.133,370.289 540.133,467.272 343.496,807.854 736.769,807.857 "/>
<g>
	<path d="M375.815,919.756l-27.273,24.07c-9.577-13.328-19.326-19.994-29.254-19.994c-4.832,0-8.782,1.297-11.855,3.881
		c-3.075,2.588-4.614,5.504-4.614,8.746c0,3.244,1.1,6.313,3.297,9.207c2.984,3.858,11.989,12.145,27.007,24.856
		c14.054,11.752,22.571,19.162,25.563,22.23c7.466,7.541,12.757,14.754,15.876,21.637c3.117,6.883,4.678,14.4,4.678,22.556
		c0,15.87-5.486,28.981-16.46,39.325c-10.974,10.351-25.279,15.523-42.923,15.523c-13.781,0-25.786-3.377-36.011-10.129
		c-10.229-6.752-18.983-17.361-26.271-31.83l30.958-18.676c9.31,17.098,20.021,25.646,32.141,25.646
		c6.321,0,11.637-1.84,15.938-5.522c4.304-3.683,6.457-7.937,6.457-12.758c0-4.386-1.628-8.769-4.875-13.152
		c-3.254-4.385-10.412-11.092-21.478-20.125c-21.081-17.187-34.696-30.447-40.845-39.785c-6.148-9.34-9.223-18.656-9.223-27.951
		c0-13.416,5.113-24.924,15.342-34.526c10.228-9.601,22.847-14.4,37.86-14.4c9.656,0,18.854,2.236,27.586,6.705
		C356.171,899.764,365.633,907.918,375.815,919.756z"/>
	<path d="M393.128,893.451h106.931v36.303H464.81v157.174h-37.354V929.754h-34.327V893.451z"/>
	<path d="M519.471,893.451h36.96v125.11c0,10.779,0.94,18.4,2.829,22.869c1.886,4.468,4.998,8.039,9.337,10.711
		c4.341,2.673,9.58,4.009,15.72,4.009c6.488,0,12.077-1.488,16.771-4.47c4.688-2.979,7.934-6.768,9.729-11.366
		c1.797-4.599,2.697-13.384,2.697-26.353V893.451h36.957v115.35c0,19.465-1.097,32.97-3.286,40.51
		c-2.192,7.543-6.38,14.818-12.561,21.832c-6.182,7.019-13.308,12.214-21.375,15.589c-8.067,3.373-17.449,5.063-28.146,5.063
		c-14.032,0-26.239-3.225-36.629-9.67c-10.395-6.443-17.824-14.51-22.296-24.199c-4.473-9.688-6.709-26.063-6.709-49.125V893.451
		L519.471,893.451z"/>
	<path d="M690.522,893.451h43.633c28.119,0,49.014,3.483,62.683,10.457c13.663,6.969,24.924,18.305,33.774,33.998
		c8.848,15.696,13.271,34.022,13.271,54.979c0,14.906-2.474,28.607-7.422,41.103c-4.95,12.496-11.785,22.866-20.505,31.106
		c-8.715,8.242-18.155,13.941-28.315,17.099c-10.166,3.157-27.773,4.735-52.831,4.735h-44.286L690.522,893.451L690.522,893.451z
		 M727.086,928.963v122.056h17.101c16.836,0,29.043-1.929,36.631-5.791c7.584-3.861,13.786-10.357,18.611-19.486
		c4.819-9.129,7.231-20.363,7.231-33.709c0-20.539-5.744-36.471-17.229-47.795c-10.348-10.183-26.965-15.273-49.85-15.273
		L727.086,928.963L727.086,928.963z"/>
	<path d="M874.567,893.451h36.564v193.477h-36.564V893.451z"/>
	<path d="M1041.512,888.584c27.375,0,50.911,9.91,70.609,29.725c19.699,19.816,29.549,43.976,29.549,72.474
		c0,28.233-9.719,52.129-29.153,71.682c-19.438,19.553-43.019,29.332-70.74,29.332c-29.045,0-53.174-10.041-72.39-30.121
		c-19.216-20.078-28.823-43.932-28.823-71.551c0-18.5,4.475-35.514,13.424-51.033c8.951-15.52,21.258-27.815,36.92-36.895
		C1006.567,893.121,1023.435,888.584,1041.512,888.584z M1041.116,924.621c-17.907,0-32.963,6.229-45.162,18.678
		c-12.202,12.451-18.3,28.277-18.3,47.482c0,21.395,7.68,38.317,23.042,50.768c11.937,9.734,25.628,14.603,41.079,14.603
		c17.463,0,32.342-6.314,44.633-18.941c12.289-12.625,18.435-28.189,18.435-46.693c0-18.412-6.189-33.998-18.566-46.756
		S1058.847,924.621,1041.116,924.621z"/>
</g>
</svg>
