<?xml version="1.0" encoding="utf-8"?>
<!-- Generator: Adobe Illustrator 16.0.0, SVG Export Plug-In . SVG Version: 6.00 Build 0)  -->
<!DOCTYPE svg PUBLIC "-//W3C//DTD SVG 1.1//EN" "http://www.w3.org/Graphics/SVG/1.1/DTD/svg11.dtd">
<svg version="1.1" id="Layer_1" xmlns="http://www.w3.org/2000/svg" xmlns:xlink="http://www.w3.org/1999/xlink" x="0px" y="0px"
	 width="406px" height="306.5px" viewBox="79.965 129.464 406 306.5" enable-background="new 79.965 129.464 406 306.5"
	 xml:space="preserve">
<polygon fill="#FFFFFF" points="82.093,371.871 93.873,371.871 93.873,422.525 111.038,422.525 111.038,433.757 82.093,433.757 "/>
<g>
	<defs>
		<rect id="SVGID_1_" x="0" width="566.93" height="566.929"/>
	</defs>
	<clipPath id="SVGID_2_">
		<use xlink:href="#SVGID_1_"  overflow="visible"/>
	</clipPath>
	<path clip-path="url(#SVGID_2_)" fill="#FFFFFF" d="M127.78,421.767c1.823,0,3.379,0.637,4.669,1.912
		c1.291,1.277,1.937,2.828,1.937,4.65s-0.646,3.381-1.937,4.67c-1.29,1.291-2.846,1.936-4.669,1.936c-1.824,0-3.38-0.645-4.67-1.936
		c-1.291-1.289-1.937-2.848-1.937-4.67s0.646-3.373,1.937-4.65C124.4,422.404,125.956,421.767,127.78,421.767"/>
</g>
<g>
	<defs>
		<rect id="SVGID_3_" x="0" width="566.93" height="566.929"/>
	</defs>
	<clipPath id="SVGID_4_">
		<use xlink:href="#SVGID_3_"  overflow="visible"/>
	</clipPath>
	<polygon clip-path="url(#SVGID_4_)" fill="#FFFFFF" points="134.633,371.871 146.744,371.871 162.314,415.835 178.112,371.871 
		190.208,371.871 167.911,433.757 156.552,433.757 	"/>
</g>
<g>
	<defs>
		<rect id="SVGID_5_" x="0" width="566.93" height="566.929"/>
	</defs>
	<clipPath id="SVGID_6_">
		<use xlink:href="#SVGID_5_"  overflow="visible"/>
	</clipPath>
	<path clip-path="url(#SVGID_6_)" fill="#FFFFFF" d="M197.085,421.767c1.823,0,3.38,0.637,4.67,1.912
		c1.29,1.277,1.936,2.828,1.936,4.65s-0.646,3.381-1.936,4.67c-1.29,1.291-2.847,1.936-4.67,1.936c-1.822,0-3.38-0.645-4.67-1.936
		c-1.291-1.289-1.935-2.848-1.935-4.67s0.644-3.373,1.935-4.65C193.705,422.404,195.262,421.767,197.085,421.767"/>
</g>
<g>
	<defs>
		<rect id="SVGID_7_" x="0" width="566.93" height="566.929"/>
	</defs>
	<clipPath id="SVGID_8_">
		<use xlink:href="#SVGID_7_"  overflow="visible"/>
	</clipPath>
	<polygon clip-path="url(#SVGID_8_)" fill="#FFFFFF" points="240.25,371.871 252.198,371.871 252.198,395.221 272.855,395.221 
		272.855,371.871 284.761,371.871 284.761,433.757 272.855,433.757 272.855,406.621 252.198,406.621 252.198,433.757 
		240.25,433.757 	"/>
</g>
<g>
	<defs>
		<rect id="SVGID_9_" x="0" width="566.93" height="566.929"/>
	</defs>
	<clipPath id="SVGID_10_">
		<use xlink:href="#SVGID_9_"  overflow="visible"/>
	</clipPath>
	<path clip-path="url(#SVGID_10_)" fill="#FFFFFF" d="M316.527,371.871h11.945l23.803,61.887h-12.242l-4.842-12.748h-25.253
		l-5.034,12.748h-12.242L316.527,371.871z M322.573,388.279l-8.303,21.246h16.558L322.573,388.279z"/>
</g>
<g>
	<defs>
		<rect id="SVGID_11_" x="0" width="566.93" height="566.929"/>
	</defs>
	<clipPath id="SVGID_12_">
		<use xlink:href="#SVGID_11_"  overflow="visible"/>
	</clipPath>
	<polygon clip-path="url(#SVGID_12_)" fill="#FFFFFF" points="360.194,371.871 371.493,371.871 397.975,412.596 397.975,371.871 
		409.754,371.871 409.754,433.757 398.423,433.757 371.975,393.16 371.975,433.757 360.194,433.757 	"/>
</g>
<g>
	<defs>
		<rect id="SVGID_13_" x="0" width="566.93" height="566.929"/>
	</defs>
	<clipPath id="SVGID_14_">
		<use xlink:href="#SVGID_13_"  overflow="visible"/>
	</clipPath>
	<path clip-path="url(#SVGID_14_)" fill="#FFFFFF" d="M480.42,381.966l-8.296,8.205c-5.25-5.555-11.369-8.33-18.359-8.33
		c-6.091,0-11.192,2.02-15.307,6.06c-4.111,4.037-6.168,8.946-6.168,14.726c0,5.973,2.134,11.035,6.401,15.187
		c4.267,4.149,9.531,6.228,15.794,6.228c4.07,0,7.503-0.857,10.298-2.566c2.792-1.711,5.045-4.391,6.759-8.035h-17.923v-11.064
		h31.134l0.084,2.607c0,5.414-1.402,10.547-4.207,15.398c-2.805,4.854-6.438,8.553-10.897,11.105s-9.688,3.828-15.691,3.828
		c-6.422,0-12.15-1.395-17.187-4.186c-5.033-2.791-9.016-6.766-11.947-11.928c-2.931-5.16-4.396-10.729-4.396-16.701
		c0-8.189,2.706-15.314,8.119-21.373c6.424-7.207,14.78-10.813,25.074-10.813c5.386,0,10.421,0.996,15.104,2.986
		C472.761,374.984,476.633,377.875,480.42,381.966"/>
</g>
<g>
	<defs>
		<rect id="SVGID_15_" x="0" width="566.93" height="566.929"/>
	</defs>
	<clipPath id="SVGID_16_">
		<use xlink:href="#SVGID_15_"  overflow="visible"/>
	</clipPath>
	<path clip-path="url(#SVGID_16_)" fill="none" stroke="#FFFFFF" stroke-miterlimit="10" d="M356.819,354.787L228.021,131.7h257.597
		L356.819,354.787z M266.544,153.941l90.275,156.361l90.276-156.361H266.544z"/>
</g>
<g>
	<defs>
		<rect id="SVGID_17_" x="0" width="566.93" height="566.929"/>
	</defs>
	<clipPath id="SVGID_18_">
		<use xlink:href="#SVGID_17_"  overflow="visible"/>
	</clipPath>
	<polygon clip-path="url(#SVGID_18_)" fill="#FFFFFF" points="356.818,354.787 228.214,131.919 266.544,153.941 356.818,310.302 
		447.095,153.941 485.699,131.616 	"/>
</g>
<g>
	<defs>
		<rect id="SVGID_19_" x="0" width="566.93" height="566.929"/>
	</defs>
	<clipPath id="SVGID_20_">
		<use xlink:href="#SVGID_19_"  overflow="visible"/>
	</clipPath>
	<path clip-path="url(#SVGID_20_)" fill="none" stroke="#FFFFFF" stroke-miterlimit="10" d="M338.828,354.744H81.231
		l128.798-223.085L338.828,354.744z M119.754,332.501h180.552L210.029,176.14L119.754,332.501z"/>
</g>
<g>
	<defs>
		<rect id="SVGID_21_" x="0" width="566.93" height="566.929"/>
	</defs>
	<clipPath id="SVGID_22_">
		<use xlink:href="#SVGID_21_"  overflow="visible"/>
	</clipPath>
	<polygon clip-path="url(#SVGID_22_)" fill="#FFFFFF" points="339.133,354.744 81.229,354.744 210.029,131.616 210.029,176.14 
		119.754,332.501 300.305,332.501 	"/>
</g>
</svg>
