<svg version="1" xmlns="http://www.w3.org/2000/svg" width="1082.667" height="1082.667" viewBox="0 0 812.000000 812.000000"><path d="M259 104.5c0 .8-.4 1.5-1 1.5-.5 0-1 .4-1 .9 0 .6-3 6.1-6.6 12.3-3.7 6.2-7.8 13.3-9.2 15.8-1.4 2.5-5.9 10.3-10 17.5-25 43.2-36.2 62.7-36.2 63.1 0 .3-.5 1-1 1.7-1.7 1.9-16 26.9-16 27.8 0 .5-.5.9-1.2.9-.6 0-.8.3-.5.6.4.4-.2 1.9-1.2 3.3s-6.3 10.5-11.8 20.1c-5.6 9.6-11 19.1-12.1 21-1.1 1.9-3.3 5.7-4.7 8.5-1.5 2.7-3.2 5.6-3.8 6.4-1.3 1.6-3.3 4.8-4.5 7.6-.6 1.1-3.1 5.6-5.7 10s-5.7 9.6-6.8 11.5c-8.5 15.2-11.2 19.7-12.5 21.2-.8 1-1.2 1.8-.9 1.8.4 0-.4 1.6-1.8 3.5-1.3 2-3 4.9-3.7 6.5-.7 1.7-1.6 3-2 3-.5 0-.8.4-.8 1 0 .5-5.6 10.5-12.3 22.2-22.1 38-45.1 77.9-54.7 94.8-5.2 9.1-9.7 16.7-10 17-.9.9-5.1 8.4-6.3 11.2-.6 1.6-1.5 2.8-1.9 2.8-.4 0-.8.4-.8.9s-3.6 7.1-8.1 14.7c-4.4 7.7-8.1 14.3-8.2 14.9-.1.6 95.1.9 258.6 1 206.5 0 258.7-.2 258.7-1.2 0-.7-.4-1.3-1-1.3-.5 0-1-.4-1-.9 0-.8-8.2-15.3-22.9-40.4-2.8-4.9-5.1-9-5.1-9.2 0-.2-3.1-5.6-7-12-3.8-6.4-7-12-7-12.5 0-.6-.4-1-.9-1s-1.1-.8-1.4-1.8c-.3-.9-2.2-4.4-4.1-7.7-2-3.3-3.9-6.6-4.2-7.4-.4-.8-3.6-6.4-7.2-12.5s-7.4-12.7-8.5-14.6c-3.6-6.4-15.8-27.5-16.8-29-.5-.8-1.5-2.6-2.1-4-.7-1.4-1.5-2.7-1.8-3-.8-.7-3.9-6.1-5.6-9.5-.8-1.7-2.6-4.8-4-7s-2.7-4.8-3.1-5.8c-.3-.9-1-1.7-1.6-1.7-.6 0-.7-.3-.4-.7.4-.3.1-1.3-.7-2.2-.7-.9-4.9-7.9-9.3-15.6-12.3-21.6-30.7-53.4-35.7-62-2.6-4.2-4.6-7.8-4.6-8 0-.1-3.6-6.4-8-13.9-4.4-7.6-8-14.1-8-14.6 0-.6-.4-1-.9-1s-1.1-.8-1.4-1.8c-.4-.9-1.8-3.7-3.3-6.2-3.2-5.4-5.8-9.8-9.6-16.5-3.9-6.9-4.1-7.1-8.7-14.8-2.3-3.8-4.1-7-4.1-7.2 0-.2-2-3.8-4.5-7.9-2.5-4.2-4.5-7.9-4.5-8.2 0-.3-.8-1.7-1.9-3.2-1.6-2.3-26.8-45.7-30.8-53.2-.8-1.4-2.5-4.3-3.9-6.5-1.3-2.2-3-5.1-3.7-6.5-.6-1.4-1.4-2.7-1.8-3-.3-.3-1.3-1.9-2.2-3.5-.8-1.7-2.3-4.5-3.2-6.3-1.8-3.4-3.5-4.2-3.5-1.7zm6.3 10.8c5 9.1 7.1 12.6 10.5 18.2 1.8 2.7 3.7 6.1 4.4 7.5.7 1.4 2.2 4.1 3.4 6 1.1 1.9 3.2 5.5 4.6 8 4.3 7.6 32.2 56 37.2 64.3 2.5 4.3 4.6 8 4.6 8.2 0 .2 3.4 6 7.5 13 4.1 6.9 7.5 13.1 7.5 13.6s.5.9 1 .9c.6 0 1 .4 1 1 0 .5 1.3 3.1 2.9 5.8 2.8 4.8 5.7 9.9 10.7 18.9 1.5 2.7 3.4 5.9 4.4 7.3.9 1.4 2 3.2 2.3 4 .4.8 1.8 3.3 3.1 5.5 1.4 2.2 3.1 5.1 3.9 6.5 3.1 5.6 6.1 10.8 9.2 16 1.8 3 4.4 7.5 5.7 10 1.4 2.5 7.3 12.7 13.2 22.8 5.8 10.1 10.6 18.8 10.6 19.3s.3.9.8.9c.4 0 1.8 2.3 3.1 5 1.4 2.8 2.9 5 3.3 5 .4 0 .8.6.8 1.3 0 .7 2 4.6 4.5 8.6s4.5 7.5 4.5 7.7c0 .2 1.9 3.7 4.3 7.7 2.4 3.9 8.1 13.7 12.7 21.7s9.2 15.7 10.2 17.2c1.1 1.6 1.6 2.8 1.2 2.8-.4 0 0 .8.8 1.7.8 1 2.6 3.8 3.9 6.3 1.3 2.5 2.6 4.7 2.9 5 .3.3 1.2 1.8 2 3.5.8 1.6 5.1 9.1 9.6 16.5 4.4 7.4 8.3 14.2 8.7 15 .4.8 1.8 3.3 3.2 5.5 1.4 2.2 2.8 4.7 3.2 5.5.4.8 3.3 5.9 6.5 11.3 3.2 5.3 5.8 9.9 5.8 10.2 0 .2 2.2 4.1 5 8.7 2.7 4.6 5 8.7 5 9.3 0 .7-.3.7-.8 0-.7-1-1.7-1.6-9.4-5.8-2.2-1.2-5.6-3.2-7.6-4.4-2-1.2-5-2.9-6.7-3.7-1.6-.9-13.3-7.6-25.8-14.9-22.1-12.7-23-13.4-25.5-18.2-1.5-2.8-2.9-5.2-3.3-5.5-.3-.3-1.3-2.1-2.3-4-.9-1.9-3.3-6.2-5.3-9.5-1.9-3.3-4.4-7.6-5.5-9.5-6.8-12-10.2-17.8-11.6-20-.9-1.4-1.7-2.7-1.7-3 0-.3-.8-1.6-1.7-3-1.4-2.2-5-8.4-11.1-19-1.1-1.9-3.4-6-5-9-1.7-3-5.5-9.5-8.5-14.5-3-4.9-5.8-9.8-6.3-11-.5-1.1-2.1-3.8-3.4-6-1.4-2.2-3.2-5.4-4.1-7-.8-1.7-2.2-4.2-3.2-5.7-.9-1.4-4.6-7.7-8.2-13.9-3.6-6.3-7-12.3-7.7-13.4-.7-1.1-1.8-3.1-2.5-4.5-.6-1.4-1.7-3.2-2.4-4-.6-.8-2.3-3.6-3.8-6.3-5.1-9.1-7.7-13.8-20.3-35.4-6.9-12-13.4-23.2-14.3-24.8-.9-1.7-5.9-10.2-11-19s-9.8-17-10.4-18.2c-.6-1.3-1.5-2.3-1.9-2.3-.5 0-.6-.4-.3-.9s-.1-1.4-.9-2.1c-.8-.7-1.5-1.7-1.5-2.2 0-.6-.8-2.2-1.9-3.6-1-1.5-3.2-5.2-4.9-8.3-2.7-5.1-5.9-10.7-11.8-20.7-2.1-3.6-2.2-4.5-2.2-45.4.1-23 .4-41.5.9-41.3.4.3 2.3 3.3 4.2 6.8zM262 199c.7 1.6 1.6 3 2 3 .4 0 1.3 1.5 2.1 3.2.7 1.8 1.5 3.5 1.8 3.8.3.3 1.1 1.4 1.7 2.5 5.6 10.3 8 14.4 9.5 16.7 1.1 1.4 1.9 2.8 1.9 3.1 0 .3 2.7 5.1 6 10.6 3.3 5.6 6 10.3 6 10.5 0 .3 2.3 4.1 5 8.6 2.8 4.5 5 8.3 5 8.5 0 .3 5.3 9.5 8.7 15 .7 1.1 1.9 3.3 2.8 5 .8 1.6 2.1 3.9 2.8 5 3.9 6.3 7.5 12.4 8.9 15 .8 1.6 4.9 8.8 9 16 4.2 7.1 12.2 21.1 17.9 31 5.6 9.9 10.7 18.1 11.1 18.3.4.2.8.8.8 1.3s4.1 8 9.1 16.7c5.1 8.6 10.9 18.8 13.1 22.7 2.1 3.8 4.3 7.7 4.8 8.5 2.6 4.3 11.1 19 13 22.5 1.2 2.2 2.6 4.4 3 5 .4.5 1.7 2.7 2.9 4.7 1.2 2.1 3.1 5.5 4.2 7.5 1.2 2.1 3.3 5.8 4.7 8.3 1.4 2.5 3.5 6.1 4.7 8 1.2 1.9 2.4 4.2 2.8 5 .4.8 1.3 2.4 1.9 3.5 4.7 7.3 7.7 12.5 8.2 14.3l.7 2.2h-178c-98 0-178.1-.3-178.1-.6 0-.6 16.7-29.6 39.5-68.9 4.5-7.7 13-22.6 19-33 6-10.5 11.3-19.3 11.8-19.6.5-.3.9-1 .9-1.5s1.5-3.5 3.4-6.7 3.4-6.1 3.4-6.4c0-.4.6-1.4 1.4-2.2.7-.9 2.5-3.6 3.8-6.1 1.4-2.5 5.8-10.2 9.9-17.3 4.1-7 7.9-13.5 8.4-14.5.6-.9 5.7-9.9 11.5-20 5.8-10 11-19 11.5-20 .6-.9 3.1-5.3 5.6-9.7 2.6-4.4 5.6-9.6 6.7-11.5 1.1-1.9 9.3-16.1 18.2-31.5 8.9-15.4 17.7-30.6 19.4-33.7 1.7-3.2 3.4-5.8 3.7-5.8.4 0 1.2 1.3 1.9 3zM295 104.5c0 .6.4 1.5.9 2 .5.6 3.5 5.5 6.6 11 3.2 5.5 6.5 11.3 7.5 13 .9 1.6 6.1 10.6 11.5 20 5.4 9.3 14.7 25.5 20.8 36 14.3 24.6 14.5 25.1 18.1 31.4 1.7 2.9 4 7 5.2 9 1.1 2 3.1 5.4 4.3 7.6 3.4 5.8 16 27.4 18.5 31.5 1.1 1.9 2.1 3.7 2.1 4 0 .3.8 1.6 1.7 3 1.4 2.2 5 8.4 11.1 19 1.1 1.9 3.3 6 5 9 1.6 3 3.6 6.2 4.3 7.1.8.8 1.4 1.9 1.4 2.2 0 .4 1.8 3.6 4 7.2s4 6.7 4 6.9c0 .2 5.4 9.7 12.1 21.1 6.6 11.5 13.1 22.7 14.3 24.9 1.3 2.3 5.6 9.7 9.6 16.6 4 6.9 8.2 14.1 9.3 16 2.7 4.8 15.6 27.2 16.7 29 .6.8 2.1 3.5 3.5 6 4.1 7.5 7 12.4 8.6 15 .9 1.4 6.3 10.6 11.9 20.5 5.7 9.9 13.1 22.7 16.5 28.5 3.4 5.8 6.4 11.2 6.8 12 .4.8 2 3.5 3.5 6s6.3 10.8 10.6 18.4c7.2 12.6 8 13.7 9.2 12 .7-1 1.7-2.4 2.1-2.9.5-.6 1.7-2.6 2.6-4.5 1-1.9 3.4-6.2 5.4-9.5 4.6-7.7 7-11.9 10.1-17.5 1.4-2.5 3.3-5.7 4.3-7.2 1.1-1.4 1.9-2.8 1.9-3.1 0-.3 2-4 4.5-8.1 2.5-4.2 4.5-8.1 4.5-8.6 0-.6.5-1 1-1 .6 0 1-.4 1-.9 0-.7 6.9-13.2 10.1-18.1 3.4-5.3 13.9-24.3 13.9-25.1 0-.5.5-.9 1-.9.6 0 1-.4 1-.9s2.2-4.7 5-9.4c2.7-4.7 5-9 5-9.5 0-.6.4-1.2.8-1.4.4-.2 3.6-5.3 7.1-11.3 3.4-6.1 6.6-11.7 7.2-12.5.5-.8 4.1-7.1 8-14 6-10.5 16.3-28.4 23.9-41.5 1-1.7 6.8-11.8 13-22.5s12.1-21 13.1-22.8c1.1-1.7 2.7-4.7 3.8-6.5 1-1.7 5.7-9.9 10.5-18 4.7-8.2 8.6-15.3 8.6-15.8s.3-.9.8-.9c.4 0 1.2-1 1.7-2.3 1.7-3.6 6-11.2 6.6-11.7.3-.3.8-1 1-1.5.6-1.7 15.2-26.9 15.8-27.5.3-.3 1.5-2.3 2.6-4.5s2.2-4.2 2.5-4.5c.3-.3 1.1-1.6 1.8-3 .6-1.4 1.6-3.2 2.2-4 2.1-3.3 13-22.1 13-22.5 0-.3 1.6-2.9 3.5-5.9 1.9-3 3.5-5.9 3.5-6.5 0-.5.6-1.6 1.3-2.3 1.2-1.3 2.5-3.5 6.4-10.7 1-1.9 2.2-4 2.6-4.5.4-.6 3.1-5.2 5.9-10.1 2.8-5 5.9-10.4 6.8-12 8.3-14.3 10.1-17.8 9.5-18.3-1.2-1.2-516.5-.9-516.5.3zm512.4 1.7c-.4.5-9.3 5.9-20.5 12.2-4.5 2.5-24.8 14.4-26.9 15.6-.8.6-6.5 3.9-12.7 7.4l-11.2 6.5-182.3-.1H371.6l-5.6-3c-3-1.7-12-6.9-19.9-11.4-7.9-4.6-14.7-8.4-15.1-8.4-.5 0-1-.3-1.2-.8-.1-.4-1.9-1.5-3.8-2.4-1.9-1-4.2-2.2-5-2.8-.8-.5-6.1-3.6-11.7-6.8-5.7-3.3-10.1-6.1-9.9-6.3.8-.7 508.5-.5 508 .3zM417.5 150c11 0 20.5 0 21-.1.6-.1 2.4-.1 4-.1 18.8.2 43.2.2 44 .1.6-.1 2.4-.1 4-.1 18.8.2 43.2.2 44 .1.6-.1 2.4-.1 4-.1 18.8.2 43.2.2 44 .1.6-.1 2.4-.1 4-.1 18.3.2 43.2.2 43.8.1.4 0 1.8-.1 3.2-.1 59.5 0 99.8.4 98.9 1-.6.4-1.3 1.4-1.7 2.2-.4.8-1.1 2.2-1.7 3-1 1.5-21.7 37.4-38.3 66.5-5 8.8-9.4 16.2-9.8 16.5-.3.3-.8 1-1 1.6-.3.8-16.4 29-23.3 40.7-1 1.8-6.6 11.5-12.4 21.7-5.9 10.2-11.1 18.8-11.7 19.2-.5.4-.6.8-.2.8.5 0 0 1.2-1.1 2.7-1.1 1.6-3.3 5.1-4.8 7.9-2.9 5.1-22.8 39.6-24.5 42.4-3.5 5.9-16.9 29.3-16.9 29.6 0 .2-1.6 2.8-3.5 5.8s-3.5 5.8-3.5 6.1c0 .3-1.5 3-3.4 5.9-1.8 2.9-3.7 6.2-4 7.4-.4 1.2-1.2 2.2-1.7 2.2s-.9.5-.9 1.1c0 .5-2.9 6-6.5 12S555 457.5 555 458c0 1.7-1.5 1.1-3-1.3-.8-1.2-1.5-2.4-1.5-2.7 0-.3-.8-1.6-1.6-3-4.5-7-23.9-41.1-23.9-42 0-.5-.4-1-1-1-.5 0-1-.4-1-1 0-.5-1.7-3.8-3.8-7.2-2.1-3.5-4.1-7-4.5-7.8-.4-.8-1.1-2.2-1.7-3-.9-1.3-9.9-16.8-16-27.5-.9-1.7-16-27.8-33.5-58-17.4-30.3-33.1-57.5-34.7-60.5-1.7-3-3.9-6.7-4.9-8.1-1-1.5-2.3-3.7-2.9-5-.6-1.3-1.9-3.8-3-5.4-1-1.7-2.5-4.1-3.3-5.5-3.6-6.4-7.3-13-16.6-28.9-5.6-9.5-10.1-17.4-10.1-17.6 0-.3-1.9-3.5-4.2-7.2-2.2-3.8-5.1-8.7-6.4-11.1l-2.3-4.3 7.5.2c4.1.1 7.6 0 7.9-.3.2-.2 1.9-.3 3.7-.2 1.8.2 12.3.3 23.3.4zM742.7 581.6c-.1.1-2.7.5-5.7.9-26.4 3.1-48.3 23.1-54.6 49.6-1.2 5-1.1 21.6.1 27.4 4.2 19.9 15.9 35.7 33 44.7 17.2 9 43.4 9.7 60.5 1.6 16.3-7.8 28.3-23.7 32.7-43.3.7-3.2 1.2-14.6.7-15.8-.3-.9-8.6-1.2-30.7-1-16.6.1-30.5.2-30.8.2-.3.1-.6 5-.6 11l-.1 10.8 6.7.3c3.6.1 7.2.2 7.9.1 1.6-.1 3.2-.2 12.4-.1 4.2 0 7.9.3 8.2.8.8 1.3-6.4 10.2-11.2 13.9-5.7 4.3-9.9 5.5-21.2 5.9-7.5.2-10.7-.1-15.3-1.7-14-4.8-24.4-15.2-28.2-28.3-1.6-5.5-2.2-15.7-1.2-20.2 1.4-5.8 3.1-10.4 4-10.4.6 0 .7-.3.4-.6-1.6-1.6 9-12.9 15.6-16.9 7.3-4.2 13.1-5.5 23.7-5.1 5.2.2 10.5.6 11.7.9 4.3 1.1 15.8 7.7 19.6 11.3 4.4 4.2 3 4.8 14.3-6.3l6.4-6.2-4.7-4.7c-4.5-4.4-11.9-9.6-17.3-12.1-2.4-1.1-6.5-2.6-6.5-2.3 0 .1-1.8-.6-4-1.6-2.2-.9-4.2-1.6-4.5-1.5-.3.1-3.4-.1-7-.5-7-.7-13.9-1.1-14.3-.8zM5 585.5c-.4.5-.7 28.4-.6 62l.1 61h57.8l-.1-9.3c0-5-.1-10.1-.1-11.2-.1-2-.7-2.1-16.7-1.9-9.1 0-16.8-.2-17.1-.5-.8-.8-.6-94.3.2-95.5.3-.6.2-1.1-.4-1.1-.6 0-.8-.7-.5-1.5.3-.8 0-1.7-.7-2-2.9-.9-21.1-1-21.9 0zM113.4 584.8c-3.8.6-4.7 1.2-3.7 2.5.6.6 2.2 4.6 3.6 8.7 3.6 10.4 7.9 22.7 12.2 34.5 2 5.5 3.8 10.7 4 11.5.3.8 2 5.8 3.9 11s7.1 19.9 11.7 32.6l8.2 23.1 10.8-.1c5.9-.1 11.2-.6 11.7-1.1.9-1 2.9-6.7 23.2-63 6.1-17.1 13.4-37.2 16.1-44.8 2.8-7.7 4.9-14.1 4.6-14.3-.4-.4-8.5-.7-17.9-.5-5.7.1-6 .3-7.3 5.1-.1.3-.5 1.2-.8 2-.4.8-2.5 6.7-4.8 13-6.1 17.2-13.3 37.3-17.4 48.5-2 5.5-3.8 10.4-3.9 11-.1.5-.9 2.5-1.7 4.4l-1.5 3.5-2.8-8.5c-1.5-4.6-3.1-9.3-3.6-10.4-.5-1.1-2.2-5.8-3.9-10.5-1.6-4.7-6.9-19.6-11.7-33.3l-8.7-24.7-4.6-.1c-2.5 0-6.7-.1-9.2-.2-2.5-.1-5.4-.1-6.5.1zM324 585l-3.5.5v123h24v-54h41l.2 24c0 13.2.2 25.4.2 27.1l.1 3.1 11.3-.2c6.1-.2 11.4-.3 11.7-.4.3 0 .6-27.8.6-61.6V585l-6.8-.1c-3.7 0-8.8-.1-11.3-.1-2.5-.1-4.8.2-5.2.5-.3.4-.7 10.7-.8 22.9-.1 12.3-.3 22.5-.3 22.8-.2.4-36.4.5-39.7.1-.7-.1-1-8.2-1-22.7 0-12.4-.2-22.9-.5-23.2-.6-.8-14.9-.9-20-.2zM476.2 585c-3.3.5-3.5.7-9.3 15.5-3.2 8.2-5.8 15-5.8 15 .1 0-2.3 6.4-4.4 11.5-1.2 3-2.2 5.7-2.2 6-.1.7-7.4 19.9-8.6 22.5-2 4.5-19.2 49.2-19.6 51.1-.4 1.9-.1 2 11.3 2 11.6-.1 11.8-.1 13-2.6 2.3-4.7 3.4-7.5 6.3-15l2.8-7.5 25.1-.3c28.3-.3 25.6-1 28.7 8 .8 2.5 2.2 6.3 3.2 8.4.9 2.1 1.8 4.5 1.9 5.2.6 3.4 2.3 3.8 13.6 3.7 13.7-.3 13-.1 11.9-2.3-1.8-3.5-3.2-7.1-12.1-30.7-5-13.2-9.5-24.9-10-26-.5-1.1-3.7-9.2-7-18-14.9-39.1-17-44.6-17.9-45.7-.7-.9-16.5-1.5-20.9-.8zm21.4 64.8c2 5.1 3.3 9.6 3 9.9-.6.7-30.6.6-31.2 0-.3-.2.9-3.7 2.5-7.8s5.2-13.4 8.1-20.8l5.3-13.4 4.4 11.4c2.4 6.3 6 15.6 7.9 20.7zM566 584.8l-5.5.3.1 61.2c.1 33.7.2 61.4.3 61.7.2.8 21.8.6 22.6-.2.9-.8.9-41.3.1-42.7-.4-.6-.4-1.1.1-1.1.4 0 .7-7.9.6-17.5-.1-9.6 0-17.5.2-17.5.3 0 2.2 2.6 4.2 5.7 2.1 3.2 4.1 5.9 4.6 6.1.4.2.7.7.7 1.2 0 .7 9.3 15.4 11.7 18.6 1.4 1.8 3.3 4.8 4 6.4.4.8.9 1.7 1.2 2 1.3 1.1 10.1 15.1 10.1 16 0 .5.3 1 .8 1 .4 0 2.3 2.6 4.1 5.7 1.9 3.2 3.7 6 4.1 6.3.3.3 2 2.8 3.8 5.6l3.2 5.1 9.3.1c5 0 10.1-.1 11.2-.3 2-.4 2-1.1 2-62V585l-3-.1c-5.2-.2-19.9.2-20.2.5-.2.2-.3 21.9-.2 46.1.1 29.2-.1 34-1.6 32-.8-1.1-1.9-2.5-2.5-3.2-.5-.7-1-1.4-1-1.7 0-.3-3.5-5.8-7.8-12.3-4.3-6.5-10.7-16.3-14.3-21.7-16.9-26.2-20.8-32.2-21.6-33.1-.4-.6-1.4-2.2-2.2-3.8-.8-1.5-2.1-2.7-3-2.8-.9 0-3.6-.1-6.1-.2-2.5-.1-7-.1-10 .1zM91.5 685.3c-5.2 1.7-9.8 8-9 12.3.2 1.1.4 2.7.4 3.7.1.9 1.6 3.4 3.5 5.4 2.9 3.2 4 3.7 8.2 3.9 6.6.3 10.8-2.3 13.3-8.2 4.1-10.1-6-20.5-16.4-17.1zM230.6 685.1c-5.4 1.5-9.6 7.2-9.6 12.9 0 8.7 8.9 14.8 17.3 12.1 8.5-2.8 12-13.8 6.4-20.2-4-4.7-8.7-6.2-14.1-4.8z"/></svg>